<svg width="197" height="48" viewBox="0 0 197 48" fill="none" xmlns="http://www.w3.org/2000/svg">
<g clip-path="url(#clip0_324_815)">
<path d="M33.7029 33.7651L24.4505 47.7411L24.1585 47.8364L14.0679 33.8132L2.06432e-06 24.3867L0.104396 24.0771L14.0695 14.0453L23.3218 0.225165C23.4066 0.0683056 23.651 -0.103567 23.7895 0.0771063L33.7029 14.0925L33.7029 14.196L14.1677 14.3513L14.1677 33.661L33.7029 33.661L33.7029 33.7646L33.7029 33.7651Z" fill="#FCBB37"/>
<path d="M33.7031 33.7651L33.7031 33.6616L33.7031 14.1965L33.7031 14.093L47.8636 23.5703L33.7031 33.7651Z" fill="#1660A4"/>
<path d="M59.0258 21.2371L59.0258 29.8307L54.0645 29.8307L54.0645 5.81001C57.9224 6.07973 62.4083 5.29802 66.1582 6.17188C70.8441 7.26368 72.4668 11.1479 71.5019 15.6668C70.212 21.7077 63.9194 21.3111 59.0258 21.2366L59.0258 21.2371ZM59.0258 17.0956L63.3152 17.0956C63.6377 17.0956 64.7189 16.8031 65.0491 16.6582C67.3355 15.6569 67.4652 11.3674 65.123 10.4179C64.8279 10.2984 63.9034 10.0545 63.6253 10.0545L59.0258 10.0545L59.0258 17.0951L59.0258 17.0956Z" fill="#1660A4"/>
<path d="M88.4838 22.1689L76.649 22.1689C76.5864 22.1689 76.5162 22.3046 76.5141 22.4024C76.5058 22.7187 76.6469 23.5092 76.7317 23.8468C77.466 26.7722 81.7907 27.8045 83.3695 25.0695C83.4837 24.8718 83.5969 24.4395 83.677 24.3422C83.954 24.0057 87.5975 24.4343 88.2771 24.3437C87.7541 27.8687 85.7106 29.7707 82.218 30.2319C74.7146 31.2228 71.3006 26.8178 71.8561 19.6452C72.2933 14.004 76.7632 11.0159 82.2165 11.8286C87.5541 12.6243 88.7567 17.4471 88.4838 22.1684L88.4838 22.1689ZM83.9359 19.0628C83.9013 16.4154 82.1281 14.7608 79.4681 15.3639C77.6986 15.7657 76.5689 17.2473 76.5973 19.0628L83.9359 19.0628Z" fill="#1660A4"/>
<path d="M124.246 29.8307L119.388 29.8307L119.388 17.8721C119.388 17.7168 119.149 17.0387 119.06 16.8554C118.288 15.2909 115.93 15.5312 114.704 16.3895C113.989 16.8901 113.084 18.234 113.084 19.1146L113.084 29.8307L108.329 29.8307L108.329 12.3329L112.98 12.3329L112.98 14.4036C114.362 12.9898 115.607 11.8846 117.685 11.7132C121.945 11.3617 123.982 13.5603 124.246 17.6661L124.247 29.8307L124.246 29.8307Z" fill="#1660A4"/>
<path d="M106.055 29.8307L101.3 29.8307L101.3 17.6651C101.3 16.8337 100.214 15.8397 99.3878 15.7491C97.3092 15.5218 94.995 16.9993 94.995 19.2181L94.995 29.8307L90.3438 29.8307L90.3438 12.3329L94.8916 12.3329L94.8916 14.5072L96.1867 13.1643C98.4757 11.079 103.367 11.1023 105.106 13.8528C105.461 14.414 106.055 15.9981 106.055 16.6297L106.055 29.8307L106.055 29.8307Z" fill="#1660A4"/>
<path d="M149.467 5.81002L149.467 10.1586L138.304 10.1586L138.304 15.2319L148.64 15.2319L148.64 19.5805L138.304 19.5805L138.304 25.4821L150.19 25.4821L149.674 29.8307L133.239 29.8307L133.239 5.81002L149.467 5.81002Z" fill="#1660A4"/>
<path d="M167.038 29.8307L162.697 29.8307L162.697 27.76C160.523 30.2796 156.313 31.155 153.466 29.2934C151.224 27.8273 150.768 24.3655 152.071 22.1379C154.01 18.8226 159.304 19.1384 162.595 18.7967C162.688 17.1727 162.44 15.8801 160.712 15.409C158.984 14.9379 156.952 15.498 156.539 17.4135L152.366 16.8849C152.658 11.4135 160.772 10.5991 164.486 12.7683C165.858 13.5696 167.038 15.5462 167.038 17.1484L167.038 29.8318L167.038 29.8307ZM162.594 22.0649C160.474 22.0318 155.678 21.8257 156.08 25.1223C156.171 25.8751 156.97 26.5134 157.693 26.6117C160.647 27.014 162.916 25.1068 162.594 22.0644L162.594 22.0649Z" fill="#1660A4"/>
<path d="M183.873 17.0811L179.717 17.5134C179.595 17.4834 179.453 16.7897 179.36 16.6079C178.347 14.6475 173.516 14.7655 173.259 16.9672C173.108 18.2666 175.289 18.6564 176.215 18.8268C179.372 19.4071 183.327 19.4112 184.066 23.386C185.26 29.8028 178.479 31.0701 173.65 30.0927C170.685 29.4927 168.424 27.3919 168.382 24.2387L172.928 24.1372C173.03 26.4968 175.661 26.8043 177.529 26.6195C179.967 26.3788 180.23 23.8747 177.913 23.2343C174.997 22.4288 169.875 22.6328 168.93 18.8765C167.908 14.8147 170.697 12.35 174.441 11.8271C178.381 11.2768 183.667 12.1921 183.872 17.0811L183.873 17.0811Z" fill="#1660A4"/>
<path d="M192.465 7.57016L192.465 12.1776C192.465 12.1885 192.609 12.3329 192.62 12.3329L196.496 12.3329C196.677 13.537 196.604 14.7489 196.496 15.9567L192.62 15.9567C192.609 15.9567 192.465 16.1011 192.465 16.112L192.465 24.395C192.465 24.5679 192.686 25.3377 192.79 25.5184C193.435 26.6324 195.452 26.3151 196.495 26.1029L196.999 29.6107C193.555 30.5446 188.994 30.7253 188.071 26.415C187.379 23.1847 188.056 19.2792 187.813 15.9567L185.126 15.9567L185.126 12.3329L187.813 12.3329L187.813 7.57016L192.465 7.57016Z" fill="#1660A4"/>
<path d="M141.405 35.6288L141.405 47.5874C141.405 47.7893 140.409 47.7805 140.372 47.7417C140.34 47.7075 140.352 46.9403 140.217 46.8114C138.527 48.4928 135.642 48.3769 134.396 46.2212C133.465 44.6097 133.496 41.6811 134.601 40.1503C135.929 38.311 138.742 38.2592 140.268 39.8739L140.268 35.7841C140.268 35.5465 141.199 35.6433 141.405 35.6288L141.405 35.6288ZM137.458 39.6906C133.993 39.9339 134.267 46.3952 136.933 46.8896C138.254 47.1344 139.627 46.5826 140.167 45.3116C140.434 44.6816 140.476 42.4022 140.365 41.692C140.189 40.5644 138.535 39.6145 137.458 39.6901L137.458 39.6906Z" fill="#1660A4"/>
<path d="M117.328 39.4519C117.283 39.4121 117.077 38.5092 116.986 38.2934C116.581 37.3341 115.982 36.7496 114.948 36.5037C108.599 34.9921 108.243 46.2347 113.058 46.8875C115.566 47.2276 117.223 46.2916 117.528 43.7053L118.665 43.7042C118.351 47.0148 115.935 48.1791 112.835 47.8354C107.095 47.1986 107.268 36.2055 112.851 35.4487C115.744 35.0563 118.054 36.1967 118.414 39.2568C118.335 39.3588 117.399 39.5141 117.328 39.4519L117.328 39.4519Z" fill="#1660A4"/>
<path d="M78.1471 35.6288L78.1471 47.6392C77.9724 47.6102 77.1527 47.6795 77.1129 47.6397C77.0731 47.5998 77.1434 46.8704 77.1129 46.7073C75.5625 48.4405 72.4813 48.3939 71.241 46.3263C70.3397 44.8235 70.3547 42.0321 71.1769 40.5013C72.3464 38.3234 75.5418 38.1474 77.114 39.9774L77.114 35.6288L78.1476 35.6288L78.1471 35.6288ZM74.1956 39.6927C71.9661 39.9587 71.534 42.4059 71.7501 44.2633C72.1899 48.0398 76.9667 47.605 77.2209 44.3819C77.2768 43.6732 77.3078 41.8348 77.0308 41.2514C76.5966 40.3361 75.1987 39.5731 74.1956 39.6932L74.1956 39.6927Z" fill="#1660A4"/>
<path d="M157.632 35.6288L157.632 43.0317C157.632 43.3465 157.784 44.2126 157.869 44.5543C158.175 45.7848 159.087 46.7508 160.382 46.9035C163.443 47.2638 164.212 45.2516 164.354 42.6223C164.478 40.3325 164.254 37.9294 164.35 35.6288L165.384 35.6288L165.384 43.9641C165.384 44.6097 164.798 46.0638 164.393 46.5955C162.992 48.4317 159.016 48.4354 157.589 46.5955C157.216 46.1146 156.599 44.6506 156.599 44.0676L156.599 35.6293L157.632 35.6293L157.632 35.6288Z" fill="#1660A4"/>
<path d="M99.7487 46.6038C97.6841 48.7755 93.1471 48.2376 93.7797 44.5061C94.1874 42.0999 97.956 42.2697 99.7503 42.2557C99.7601 40.2984 98.8697 39.4436 96.9074 39.6668C96.3099 39.7346 95.9073 40.0152 95.5104 40.4418C94.8722 41.1267 95.2996 41.2861 94.0649 40.9092C94.3363 39.5663 95.5161 38.8799 96.8169 38.7484C102.668 38.1572 100.299 43.8523 100.784 47.4849C100.809 47.8359 100.003 47.8064 99.8469 47.6982C99.6495 47.561 99.7906 46.8549 99.7493 46.6048L99.7487 46.6038ZM99.7498 43.187L97.2174 43.187C97.1074 43.187 96.372 43.3703 96.2128 43.4231C95.7265 43.5836 95.1383 43.946 94.9714 44.4575C93.9817 47.4942 98.5213 47.6423 99.4919 45.4654C99.5353 45.3681 99.7498 44.7292 99.7498 44.6883L99.7498 43.187Z" fill="#1660A4"/>
<path d="M132.411 43.6012L125.796 43.6012C125.734 44.794 126.344 46.3356 127.514 46.7984C128.556 47.21 130.064 47.1039 130.757 46.1374C131.276 45.4136 130.9 45.0927 132.205 45.2583C132.03 47.2747 129.947 48.1175 128.135 47.9368C122.919 47.4171 123.448 37.3248 129.849 38.8695C132.072 39.4059 132.363 41.6319 132.412 43.6012L132.411 43.6012ZM131.378 42.6694C131.252 38.5434 125.905 38.5781 125.796 42.6694L131.378 42.6694Z" fill="#1660A4"/>
<path d="M69.4655 43.6012L62.8504 43.6012C62.8075 44.8633 63.4462 46.4304 64.714 46.8595C65.6308 47.1701 67.0122 47.0681 67.7078 46.3439C67.9337 46.1089 68.2334 45.2671 68.2934 45.2526C68.5456 45.1926 68.975 45.3028 69.2593 45.2573C68.8195 48.6782 63.7078 48.8195 62.2778 45.9862C60.9434 43.3413 61.7889 38.9425 65.2747 38.7298C68.5698 38.5289 69.4505 40.6726 69.4655 43.6007L69.4655 43.6012ZM68.3285 42.6694C68.4313 38.4901 62.9367 38.6257 62.8504 42.6694L68.3285 42.6694Z" fill="#1660A4"/>
<path d="M87.3464 43.6012L80.7313 43.6012C80.7758 45.6476 81.8709 47.2069 84.0782 47.005C85.1614 46.9061 85.9278 46.3284 86.1691 45.2516L87.2425 45.2583C86.9526 47.709 84.1092 48.4147 82.0776 47.6883C78.4651 46.3962 78.7406 38.9855 83.259 38.7303C86.488 38.548 87.4612 40.697 87.3464 43.6012ZM86.3128 42.6694C86.3206 38.4864 80.9525 38.6562 80.7313 42.6694L86.3128 42.6694Z" fill="#1660A4"/>
<path d="M61.1964 35.6288L61.1964 36.7677L55.2014 36.7677L55.2014 41.1163L60.8863 41.1163C60.8718 41.3239 60.9684 42.2552 60.7312 42.2552L55.2014 42.2552L55.2014 47.5874C55.2014 47.8157 54.0645 47.8157 54.0645 47.5874L54.0645 35.6288L61.1964 35.6288Z" fill="#1660A4"/>
<path d="M182.728 38.7655C189.281 38.1324 188.668 49.6483 181.815 47.7986C178.003 46.77 178.027 39.2195 182.728 38.7655ZM182.83 39.6963C179.407 40.0799 179.403 45.9355 182.132 46.8595C187.173 48.5663 187.737 39.1465 182.83 39.6963Z" fill="#1660A4"/>
<path d="M195.772 47.6392L194.635 47.6392L194.635 41.1681C194.635 41.1008 194.34 40.5018 194.267 40.3983C193.572 39.4204 191.941 39.6471 191.07 40.288C190.865 40.4387 189.778 41.6506 189.778 41.7893L189.778 47.6392L188.744 47.6392L188.744 38.942C189.975 38.7976 189.802 39.1325 189.779 40.1845C191.085 38.5066 194.7 38.0117 195.543 40.3631C195.598 40.5173 195.773 41.1613 195.773 41.2716L195.773 47.6392L195.772 47.6392Z" fill="#1660A4"/>
<path d="M174.48 47.6392L173.446 47.6392L173.446 41.4787C173.446 41.0852 173.092 40.3517 172.759 40.0959C171.622 39.2221 169.984 39.9324 169.165 40.918C169.064 41.0402 168.485 41.9327 168.485 41.9964L168.485 47.6392L167.451 47.6392L167.451 38.942L168.485 38.942L168.536 40.2875C169.55 38.6852 172.776 38.0904 173.962 39.7191C174.114 39.9272 174.48 40.7539 174.48 40.961L174.48 47.6392Z" fill="#1660A4"/>
<path d="M149.053 36.5607L149.053 38.942L151.43 38.942L151.43 39.8739L149.208 39.8739C149.197 39.8739 149.053 40.0183 149.053 40.0292L149.053 45.6202C149.053 45.6611 149.274 46.3092 149.319 46.389C149.789 47.2198 150.946 46.9418 151.636 46.6043C151.591 46.8269 151.73 47.5393 151.575 47.6506C151.441 47.7474 150.526 47.9358 150.334 47.9384C149.125 47.9555 148.38 47.2659 148.149 46.1115C148.121 45.9707 148.019 45.3003 148.019 45.206L148.019 39.8739L146.572 39.8739L146.572 38.942L148.019 38.942L148.019 36.8195C148.019 36.6621 148.87 36.5627 149.053 36.5607Z" fill="#1660A4"/>
<path d="M120.112 39.0973C120.191 38.8416 120.91 38.9663 121.146 38.9415L121.197 40.2875C121.791 39.4985 122.774 38.8566 123.782 38.8302C124.747 38.8048 124.41 39.2112 124.454 39.9779C123.35 39.849 122.437 40.1622 121.713 41.0117C121.612 41.1313 121.146 41.8157 121.146 41.8928L121.146 47.5874C121.146 47.8126 120.112 47.8126 120.112 47.5874L120.112 39.0973Z" fill="#1660A4"/>
<path d="M89 38.942L90.0341 38.942L90.0863 40.1855C90.9225 39.4975 91.4765 38.8426 92.6698 38.839C93.5303 38.8364 93.182 39.3096 93.2383 39.9779C92.1019 39.8449 91.3256 40.141 90.6011 41.0117C90.4993 41.1344 90.0336 41.8141 90.0336 41.8928L90.0336 47.6392L89 47.6392L89 38.942Z" fill="#1660A4"/>
<path d="M103.575 35.6288L102.541 35.6288L102.541 47.6392L103.575 47.6392L103.575 35.6288Z" fill="#1660A4"/>
<path d="M145.027 38.9368L143.885 38.9368L143.885 47.6433L145.027 47.6433L145.027 38.9368Z" fill="#1660A4"/>
<path d="M177.58 38.942L176.547 38.942L176.547 47.6392L177.58 47.6392L177.58 38.942Z" fill="#1660A4"/>
<path d="M176.443 35.6288C177.715 35.5087 177.841 35.664 177.689 36.9282C177.61 37.58 176.443 37.2616 176.443 37.1301L176.443 35.6288Z" fill="#1660A4"/>
<path d="M145.022 35.6288L145.022 37.1301C145.022 37.3584 143.885 37.3584 143.885 37.1301L143.885 35.6288L145.022 35.6288Z" fill="#1660A4"/>
</g>
<defs>
<clipPath id="clip0_324_815">
<rect width="197" height="48" fill="white"/>
</clipPath>
</defs>
</svg>
